<?xml version="1.0" encoding="iso-8859-1"?>
<!-- Generator: Adobe Illustrator 19.0.0, SVG Export Plug-In . SVG Version: 6.00 Build 0)  -->
<svg xmlns="http://www.w3.org/2000/svg" xmlns:xlink="http://www.w3.org/1999/xlink" version="1.1" id="Layer_1" x="0px" y="0px" viewBox="0 0 511.998 511.998" style="enable-background:new 0 0 511.998 511.998;" xml:space="preserve" width="512px" height="512px">
<g>
	<g>
		<g>
			<path d="M423.376,348.859c-2.768-3.079-7.511-3.332-10.593-0.56c-3.079,2.77-3.331,7.513-0.56,10.593l38.9,43.253     c7.332,8.132,1.54,21.179-9.415,21.179c-3.59,0-7.026-1.527-9.427-4.19L355.6,334.085c-3.232-3.585,4.594-2.532-133.82-1.593     c-3.597,0.022-7.021-1.474-9.435-4.104L108.96,215.841c-2.292-2.494-3.476-5.733-3.331-9.118     c0.475-11.189,14.335-16.403,22.014-8.045c104.555,113.82,98.195,108.382,102.854,108.382c0.104,0,128.293-0.886,128.4-0.886     c3.622,0,7.074,1.525,9.477,4.19l27.663,30.681c2.773,3.077,7.517,3.321,10.594,0.548c3.076-2.773,3.321-7.518,0.548-10.594     l-27.662-30.68c-5.206-5.776-12.624-9.134-20.471-9.143v-29.573c0-8.928-6.004-16.466-14.18-18.83v-3.246     c0-11.348-9.231-20.579-20.579-20.579h-89.919c-11.349,0-20.581,9.231-20.581,20.579v2.465h-25.982l-49.11-53.463     c-8.802-9.584-22.599-11.44-33.316-5.76l-6.835-7.44c6.456-10.23,5.653-24-3.051-33.472l-16.911-18.41     c-10.264-11.175-27.786-12.071-39.117-1.659c-11.27,10.351-12.014,27.849-1.66,39.118l16.912,18.408     c8.265,9,21.613,11.58,32.696,6.073l7.088,7.715c-6.042,10.129-5.141,23.569,3.416,32.886l103.386,112.544     c5.091,5.543,12.261,8.769,19.78,8.94c9.964,21.053,30.389,35.589,53.441,38.21v46.721h-37.309     c-11.349,0-20.581,9.231-20.581,20.579v2.496c-10.529,0.327-19,8.973-19,19.58v17.326c0,10.814,8.798,19.612,19.611,19.612     h89.319c4.143,0,7.501-3.357,7.501-7.501s-3.357-7.501-7.501-7.501h-89.319c-2.542,0-4.609-2.068-4.609-4.61V475.06     c0-2.542,2.067-4.609,4.609-4.609c7.973,0,123.073,0,129.857,0c2.542,0,4.609,2.067,4.609,4.609v17.326     c0,2.542-2.067,4.61-4.609,4.61h-14.201c-4.143,0-7.501,3.357-7.501,7.501s3.357,7.501,7.501,7.501h14.201     c10.814,0,19.611-8.798,19.611-19.612V475.06c0-10.608-8.472-19.254-19.001-19.58v-2.496c0-11.348-9.232-20.579-20.58-20.579     h-37.607v-46.719c23.428-2.642,44.018-17.502,53.836-39.034l3.357-0.023l74.427,82.546c10.165,11.276,27.678,12.323,39.102,2.023     c11.338-10.223,12.246-27.764,2.029-39.096L423.376,348.859z M228.785,239.528c0-3.075,2.503-5.577,5.58-5.577h89.919     c3.075,0,5.578,2.502,5.578,5.577v2.465H228.785V239.528z M339.432,256.995c2.542,0,4.609,2.067,4.609,4.609v29.67     l-110.272,0.762l-32.188-35.041C209.032,256.995,332.139,256.995,339.432,256.995z M75.105,173.271     c-3.597,0-6.916-1.458-9.346-4.103l-16.913-18.409c-4.741-5.161-4.403-13.177,0.762-17.923c5.076-4.662,13.093-4.493,17.921,0.76     l16.912,18.411C91.852,160.076,86.178,173.271,75.105,173.271z M327.127,447.408c3.076,0,5.578,2.502,5.578,5.578v2.465H231.631     v-2.465c0-3.075,2.503-5.578,5.579-5.578H327.127z M238.184,347.379l88.082-0.607C305.868,378.84,259.169,379.29,238.184,347.379     z" fill="#006DF0"/>
			<path d="M462.476,10.33h-17.57c-4.143,0-7.501,3.357-7.501,7.501s3.357,7.501,7.501,7.501h17.57c2.217,0,4.021,1.804,4.021,4.021     c0,2.218-1.804,4.022-4.021,4.022H339.929c0.369-2.698,0.346-5.625,0-8.044h79.309c4.142,0,7.501-3.357,7.501-7.501     s-3.358-7.501-7.501-7.501h-86.055c-15.364-18.023-44.618-11.36-50.716,11.443c-15.587-11.972-37.602-11.149-52.197,2.365     l-3.453,3.196c-7.922,7.348-8.395,19.775-1.053,27.702l55.771,60.231c7.276,7.858,19.693,8.497,27.712,1.065l3.44-3.184     c15.695-14.531,17.309-38.569,4.077-55.03c6.519-1.342,12.252-4.856,16.419-9.743h129.292c10.489,0,19.023-8.534,19.023-19.024     C481.497,18.862,472.964,10.33,462.476,10.33z M302.496,102.141c-3.612,3.343-4.353,4.412-6.569,4.412     c-2.882,0,0.693,2.927-59.156-61.709c-1.726-1.863-1.614-4.784,0.242-6.507c3.765-3.485,9.611-9.98,20.76-9.98     c7.186,0,13.831,2.901,18.712,8.173l27.397,29.587C313.453,76.457,312.836,92.568,302.496,102.141z M323.4,36.303     c-7.179,12.922-26.928,7.814-26.928-6.95c0-7.923,6.444-14.367,14.364-14.367C321.625,14.986,328.734,26.61,323.4,36.303z" fill="#006DF0"/>
			<path d="M260.745,190.316l26.187-54.653c1.79-3.736,0.213-8.216-3.522-10.006c-3.737-1.79-8.216-0.213-10.006,3.522     l-26.186,54.653c-1.79,3.736-0.213,8.216,3.522,10.006C254.481,195.631,258.957,194.048,260.745,190.316z" fill="#006DF0"/>
			<path d="M157.772,92.03l55.327-24.729c3.781-1.69,5.477-6.127,3.787-9.909c-1.689-3.78-6.126-5.474-9.909-3.787l-55.327,24.729     c-3.781,1.69-5.477,6.127-3.787,9.909C149.549,92.014,153.975,93.723,157.772,92.03z" fill="#006DF0"/>
		</g>
	</g>
</g>
<g>
</g>
<g>
</g>
<g>
</g>
<g>
</g>
<g>
</g>
<g>
</g>
<g>
</g>
<g>
</g>
<g>
</g>
<g>
</g>
<g>
</g>
<g>
</g>
<g>
</g>
<g>
</g>
<g>
</g>
</svg>
